<svg xmlns="http://www.w3.org/2000/svg" xmlns:xlink="http://www.w3.org/1999/xlink" width="500" zoomAndPan="magnify" viewBox="0 0 375 374.999991" height="500" preserveAspectRatio="xMidYMid meet" version="1.0"><defs><g/><clipPath id="d59da3e925"><path d="M 76 114.65625 L 122 114.65625 L 122 123 L 76 123 Z M 76 114.65625 " clip-rule="nonzero"/></clipPath></defs><path fill="#6366f1" d="M 124.808594 136.300781 L 139.789062 136.300781 C 140.625 136.300781 141.457031 137.132812 141.457031 137.964844 L 141.457031 222.871094 L 142.289062 222.871094 L 142.289062 226.203125 L 139.789062 226.203125 L 120.644531 245.347656 L 120.644531 247.84375 L 117.316406 247.84375 L 117.316406 247.011719 L 59.042969 247.011719 C 58.210938 247.011719 57.378906 246.179688 57.378906 245.347656 L 57.378906 138.796875 C 57.378906 137.964844 58.210938 137.132812 59.042969 137.132812 L 74.027344 137.132812 C 74.027344 136.300781 74.027344 136.300781 74.027344 135.46875 L 74.027344 123.8125 C 74.027344 123.8125 74.027344 122.980469 74.027344 122.980469 L 44.894531 122.980469 C 44.0625 122.980469 43.230469 123.8125 43.230469 124.644531 L 43.230469 257.835938 C 43.230469 258.667969 44.0625 259.5 44.894531 259.5 L 153.109375 259.5 C 153.941406 259.5 154.773438 258.667969 154.773438 257.835938 L 154.773438 124.644531 C 154.773438 123.8125 153.941406 122.980469 153.109375 122.980469 L 124.808594 122.980469 C 124.808594 122.980469 124.808594 123.8125 124.808594 123.8125 L 124.808594 134.632812 C 124.808594 135.46875 124.808594 136.300781 124.808594 136.300781 Z M 124.808594 136.300781 " fill-opacity="1" fill-rule="nonzero"/><path fill="#cbced1" d="M 56.546875 138.796875 L 56.546875 244.515625 C 56.546875 245.347656 57.378906 246.179688 58.210938 246.179688 L 117.316406 246.179688 L 117.316406 225.371094 C 117.316406 223.703125 118.980469 222.039062 120.644531 222.039062 L 141.457031 222.039062 L 141.457031 138.796875 C 141.457031 137.964844 140.625 137.132812 139.789062 137.132812 L 124.808594 137.132812 C 124.808594 137.132812 124.808594 137.132812 124.808594 137.964844 C 123.972656 142.960938 118.980469 147.121094 112.320312 147.121094 L 85.683594 147.121094 C 79.855469 147.121094 74.859375 142.960938 74.027344 137.132812 C 74.027344 137.132812 74.027344 137.132812 74.027344 136.300781 L 59.042969 136.300781 C 57.378906 136.300781 56.546875 137.132812 56.546875 138.796875 Z M 112.320312 212.882812 C 111.488281 212.882812 110.65625 212.050781 110.65625 211.21875 C 110.65625 210.386719 111.488281 209.554688 112.320312 209.554688 C 113.152344 209.554688 113.984375 210.386719 113.984375 211.21875 C 113.984375 212.050781 113.152344 212.882812 112.320312 212.882812 Z M 125.640625 212.882812 L 118.980469 212.882812 C 118.148438 212.882812 117.316406 212.050781 117.316406 211.21875 C 117.316406 210.386719 118.148438 209.554688 118.980469 209.554688 L 125.640625 209.554688 C 126.472656 209.554688 127.304688 210.386719 127.304688 211.21875 C 127.304688 212.050781 126.472656 212.882812 125.640625 212.882812 Z M 125.640625 202.0625 L 92.34375 202.0625 C 91.507812 202.0625 90.675781 201.230469 90.675781 200.398438 C 90.675781 199.566406 91.507812 198.730469 92.34375 198.730469 L 125.640625 198.730469 C 126.472656 198.730469 127.304688 199.566406 127.304688 200.398438 C 127.304688 201.230469 126.472656 202.0625 125.640625 202.0625 Z M 125.640625 191.238281 L 92.34375 191.238281 C 91.507812 191.238281 90.675781 190.40625 90.675781 189.574219 C 90.675781 188.742188 91.507812 187.910156 92.34375 187.910156 L 125.640625 187.910156 C 126.472656 187.910156 127.304688 188.742188 127.304688 189.574219 C 127.304688 190.40625 126.472656 191.238281 125.640625 191.238281 Z M 112.320312 176.257812 C 113.152344 176.257812 113.984375 177.089844 113.984375 177.921875 C 113.984375 178.753906 113.152344 179.585938 112.320312 179.585938 C 111.488281 179.585938 110.65625 179.585938 110.65625 177.921875 C 110.65625 177.089844 111.488281 176.257812 112.320312 176.257812 Z M 111.488281 167.101562 C 111.488281 166.265625 112.320312 165.433594 113.152344 165.433594 C 113.984375 165.433594 114.816406 166.265625 114.816406 167.101562 C 114.816406 167.933594 113.984375 168.765625 113.152344 168.765625 C 112.320312 168.765625 111.488281 167.933594 111.488281 167.101562 Z M 125.640625 179.585938 L 118.980469 179.585938 C 118.148438 179.585938 117.316406 178.753906 117.316406 177.921875 C 117.316406 177.089844 118.148438 176.257812 118.980469 176.257812 L 125.640625 176.257812 C 126.472656 176.257812 127.304688 177.089844 127.304688 177.921875 C 127.304688 178.753906 126.472656 179.585938 125.640625 179.585938 Z M 125.640625 168.765625 L 118.980469 168.765625 C 118.148438 168.765625 117.316406 167.933594 117.316406 167.101562 C 117.316406 166.265625 118.148438 165.433594 118.980469 165.433594 L 125.640625 165.433594 C 126.472656 165.433594 127.304688 166.265625 127.304688 167.101562 C 127.304688 167.933594 126.472656 168.765625 125.640625 168.765625 Z M 92.34375 154.613281 L 125.640625 154.613281 C 126.472656 154.613281 127.304688 155.445312 127.304688 156.277344 C 127.304688 157.109375 126.472656 157.941406 125.640625 157.941406 L 92.34375 157.941406 C 91.507812 157.941406 90.675781 157.109375 90.675781 156.277344 C 90.675781 155.445312 91.507812 154.613281 92.34375 154.613281 Z M 92.34375 165.433594 L 106.492188 165.433594 C 107.324219 165.433594 108.160156 166.265625 108.160156 167.101562 C 108.160156 167.933594 107.324219 168.765625 106.492188 168.765625 L 92.34375 168.765625 C 91.507812 168.765625 90.675781 167.933594 90.675781 167.101562 C 90.675781 166.265625 91.507812 165.433594 92.34375 165.433594 Z M 85.683594 154.613281 C 86.515625 154.613281 87.347656 155.445312 87.347656 156.277344 C 87.347656 157.109375 86.515625 157.941406 85.683594 157.941406 C 84.851562 157.941406 84.019531 157.109375 84.019531 156.277344 C 84.019531 155.445312 84.851562 154.613281 85.683594 154.613281 Z M 85.683594 165.433594 C 86.515625 165.433594 87.347656 166.265625 87.347656 167.101562 C 87.347656 167.933594 86.515625 168.765625 85.683594 168.765625 C 84.851562 168.765625 84.019531 167.933594 84.019531 167.101562 C 84.019531 166.265625 84.851562 165.433594 85.683594 165.433594 Z M 73.195312 154.613281 L 79.855469 154.613281 C 80.6875 154.613281 81.519531 155.445312 81.519531 156.277344 C 81.519531 157.109375 80.6875 157.941406 79.855469 157.941406 L 73.195312 157.941406 C 72.363281 157.941406 71.53125 157.109375 71.53125 156.277344 C 71.53125 155.445312 72.363281 154.613281 73.195312 154.613281 Z M 73.195312 165.433594 L 79.855469 165.433594 C 80.6875 165.433594 81.519531 166.265625 81.519531 167.101562 C 81.519531 167.933594 80.6875 168.765625 79.855469 168.765625 L 73.195312 168.765625 C 72.363281 168.765625 71.53125 167.933594 71.53125 167.101562 C 71.53125 166.265625 72.363281 165.433594 73.195312 165.433594 Z M 73.195312 177.089844 L 106.492188 177.089844 C 107.324219 177.089844 108.160156 177.921875 108.160156 178.753906 C 108.160156 179.585938 107.324219 180.417969 106.492188 180.417969 L 73.195312 180.417969 C 72.363281 180.417969 71.53125 179.585938 71.53125 178.753906 C 71.53125 177.089844 72.363281 177.089844 73.195312 177.089844 Z M 85.683594 191.238281 C 84.851562 191.238281 84.019531 190.40625 84.019531 189.574219 C 84.019531 188.742188 84.851562 187.910156 85.683594 187.910156 C 86.515625 187.910156 87.347656 188.742188 87.347656 189.574219 C 87.347656 190.40625 86.515625 191.238281 85.683594 191.238281 Z M 87.347656 200.398438 C 87.347656 201.230469 86.515625 202.0625 85.683594 202.0625 C 84.851562 202.0625 84.019531 201.230469 84.019531 200.398438 C 84.019531 199.566406 84.851562 198.730469 85.683594 198.730469 C 86.515625 198.730469 87.347656 199.566406 87.347656 200.398438 Z M 73.195312 187.910156 L 79.855469 187.910156 C 80.6875 187.910156 81.519531 188.742188 81.519531 189.574219 C 81.519531 190.40625 80.6875 191.238281 79.855469 191.238281 L 73.195312 191.238281 C 72.363281 191.238281 71.53125 190.40625 71.53125 189.574219 C 71.53125 188.742188 72.363281 187.910156 73.195312 187.910156 Z M 73.195312 198.730469 L 79.855469 198.730469 C 80.6875 198.730469 81.519531 199.566406 81.519531 200.398438 C 81.519531 201.230469 80.6875 202.0625 79.855469 202.0625 L 73.195312 202.0625 C 72.363281 202.0625 71.53125 201.230469 71.53125 200.398438 C 71.53125 199.566406 72.363281 198.730469 73.195312 198.730469 Z M 73.195312 209.554688 L 106.492188 209.554688 C 107.324219 209.554688 108.160156 210.386719 108.160156 211.21875 C 108.160156 212.050781 107.324219 212.882812 106.492188 212.882812 L 73.195312 212.882812 C 72.363281 212.882812 71.53125 212.050781 71.53125 211.21875 C 71.53125 210.386719 72.363281 209.554688 73.195312 209.554688 Z M 73.195312 209.554688 " fill-opacity="1" fill-rule="nonzero"/><path fill="#cbced1" d="M 120.644531 226.203125 L 120.644531 245.347656 L 139.789062 226.203125 L 120.644531 226.203125 C 120.644531 225.371094 120.644531 226.203125 120.644531 226.203125 Z M 120.644531 226.203125 " fill-opacity="1" fill-rule="nonzero"/><path fill="#6366f1" d="M 141.457031 224.539062 L 140.625 225.371094 L 143.121094 225.371094 L 143.121094 222.871094 L 142.289062 222.871094 L 142.289062 223.703125 C 141.457031 223.703125 141.457031 224.539062 141.457031 224.539062 Z M 141.457031 224.539062 " fill-opacity="1" fill-rule="nonzero"/><path fill="#6366f1" d="M 118.148438 246.179688 L 120.644531 247.011719 L 120.644531 244.515625 L 119.8125 245.347656 C 118.980469 246.179688 118.980469 246.179688 118.148438 246.179688 Z M 118.148438 246.179688 " fill-opacity="1" fill-rule="nonzero"/><path fill="#6366f1" d="M 117.316406 226.203125 L 117.316406 247.011719 L 118.148438 247.011719 C 118.980469 247.011719 118.980469 247.011719 119.8125 246.179688 L 120.644531 245.347656 L 120.644531 226.203125 L 139.789062 226.203125 L 140.625 225.371094 C 140.625 225.371094 141.457031 224.539062 141.457031 223.703125 L 141.457031 222.871094 L 121.476562 222.871094 C 118.980469 222.871094 117.316406 224.539062 117.316406 226.203125 Z M 117.316406 226.203125 " fill-opacity="1" fill-rule="nonzero"/><g clip-path="url(#d59da3e925)"><path fill="#cbced1" d="M 113.984375 114.65625 L 86.515625 114.65625 C 81.519531 114.65625 77.359375 117.984375 76.527344 122.980469 L 121.476562 122.980469 C 121.476562 117.984375 117.316406 114.65625 113.984375 114.65625 Z M 113.984375 114.65625 " fill-opacity="1" fill-rule="nonzero"/></g><path fill="#cbced1" d="M 76.527344 122.980469 C 76.527344 122.980469 76.527344 123.8125 76.527344 123.8125 L 76.527344 134.632812 C 76.527344 135.46875 76.527344 135.46875 76.527344 136.300781 L 121.476562 136.300781 C 121.476562 135.46875 121.476562 135.46875 121.476562 134.632812 L 121.476562 123.8125 C 121.476562 123.8125 121.476562 122.980469 121.476562 122.980469 Z M 97.335938 131.304688 L 83.183594 131.304688 C 82.351562 131.304688 81.519531 130.472656 81.519531 129.640625 C 81.519531 128.808594 82.351562 127.976562 83.183594 127.976562 L 98.167969 127.976562 C 99 127.976562 99.835938 128.808594 99.835938 129.640625 C 99 130.472656 98.167969 131.304688 97.335938 131.304688 Z M 103.164062 131.304688 C 102.332031 131.304688 101.5 130.472656 101.5 129.640625 C 101.5 128.808594 102.332031 127.976562 103.164062 127.976562 C 103.996094 127.976562 104.828125 128.808594 104.828125 129.640625 C 104.828125 130.472656 103.996094 131.304688 103.164062 131.304688 Z M 115.648438 131.304688 L 108.992188 131.304688 C 108.160156 131.304688 107.324219 130.472656 107.324219 129.640625 C 107.324219 128.808594 108.160156 127.976562 108.992188 127.976562 L 115.648438 127.976562 C 116.484375 127.976562 117.316406 128.808594 117.316406 129.640625 C 117.316406 130.472656 116.484375 131.304688 115.648438 131.304688 Z M 115.648438 131.304688 " fill-opacity="1" fill-rule="nonzero"/><path fill="#cbced1" d="M 85.683594 143.792969 L 112.320312 143.792969 C 116.484375 143.792969 120.644531 140.460938 121.476562 136.300781 L 76.527344 136.300781 C 77.359375 140.460938 81.519531 143.792969 85.683594 143.792969 Z M 85.683594 143.792969 " fill-opacity="1" fill-rule="nonzero"/><path fill="#6366f1" d="M 73.195312 157.941406 L 79.855469 157.941406 C 80.6875 157.941406 81.519531 157.109375 81.519531 156.277344 C 81.519531 155.445312 80.6875 154.613281 79.855469 154.613281 L 73.195312 154.613281 C 72.363281 154.613281 71.53125 155.445312 71.53125 156.277344 C 71.53125 157.109375 72.363281 157.941406 73.195312 157.941406 Z M 73.195312 157.941406 " fill-opacity="1" fill-rule="nonzero"/><path fill="#6366f1" d="M 92.34375 157.941406 L 125.640625 157.941406 C 126.472656 157.941406 127.304688 157.109375 127.304688 156.277344 C 127.304688 155.445312 126.472656 154.613281 125.640625 154.613281 L 92.34375 154.613281 C 91.507812 154.613281 90.675781 155.445312 90.675781 156.277344 C 90.675781 157.109375 91.507812 157.941406 92.34375 157.941406 Z M 92.34375 157.941406 " fill-opacity="1" fill-rule="nonzero"/><path fill="#6366f1" d="M 73.195312 168.765625 L 79.855469 168.765625 C 80.6875 168.765625 81.519531 167.933594 81.519531 167.101562 C 81.519531 166.265625 80.6875 165.433594 79.855469 165.433594 L 73.195312 165.433594 C 72.363281 165.433594 71.53125 166.265625 71.53125 167.101562 C 71.53125 167.933594 72.363281 168.765625 73.195312 168.765625 Z M 73.195312 168.765625 " fill-opacity="1" fill-rule="nonzero"/><path fill="#6366f1" d="M 125.640625 165.433594 L 118.980469 165.433594 C 118.148438 165.433594 117.316406 166.265625 117.316406 167.101562 C 117.316406 167.933594 118.148438 168.765625 118.980469 168.765625 L 125.640625 168.765625 C 126.472656 168.765625 127.304688 167.933594 127.304688 167.101562 C 127.304688 166.265625 126.472656 165.433594 125.640625 165.433594 Z M 125.640625 165.433594 " fill-opacity="1" fill-rule="nonzero"/><path fill="#6366f1" d="M 92.34375 168.765625 L 106.492188 168.765625 C 107.324219 168.765625 108.160156 167.933594 108.160156 167.101562 C 108.160156 166.265625 107.324219 165.433594 106.492188 165.433594 L 92.34375 165.433594 C 91.507812 165.433594 90.675781 166.265625 90.675781 167.101562 C 90.675781 167.933594 91.507812 168.765625 92.34375 168.765625 Z M 92.34375 168.765625 " fill-opacity="1" fill-rule="nonzero"/><path fill="#6366f1" d="M 73.195312 179.585938 L 106.492188 179.585938 C 107.324219 179.585938 108.160156 178.753906 108.160156 177.921875 C 108.160156 177.089844 107.324219 176.257812 106.492188 176.257812 L 73.195312 176.257812 C 72.363281 176.257812 71.53125 177.089844 71.53125 177.921875 C 71.53125 178.753906 72.363281 179.585938 73.195312 179.585938 Z M 73.195312 179.585938 " fill-opacity="1" fill-rule="nonzero"/><path fill="#6366f1" d="M 125.640625 177.089844 L 118.980469 177.089844 C 118.148438 177.089844 117.316406 177.089844 117.316406 177.921875 C 117.316406 178.753906 118.148438 179.585938 118.980469 179.585938 L 125.640625 179.585938 C 126.472656 179.585938 127.304688 178.753906 127.304688 177.921875 C 127.304688 177.089844 126.472656 177.089844 125.640625 177.089844 Z M 125.640625 177.089844 " fill-opacity="1" fill-rule="nonzero"/><path fill="#6366f1" d="M 73.195312 191.238281 L 79.855469 191.238281 C 80.6875 191.238281 81.519531 190.40625 81.519531 189.574219 C 81.519531 188.742188 80.6875 187.910156 79.855469 187.910156 L 73.195312 187.910156 C 72.363281 187.910156 71.53125 188.742188 71.53125 189.574219 C 71.53125 190.40625 72.363281 191.238281 73.195312 191.238281 Z M 73.195312 191.238281 " fill-opacity="1" fill-rule="nonzero"/><path fill="#6366f1" d="M 125.640625 187.910156 L 92.34375 187.910156 C 91.507812 187.910156 90.675781 188.742188 90.675781 189.574219 C 90.675781 190.40625 91.507812 191.238281 92.34375 191.238281 L 125.640625 191.238281 C 126.472656 191.238281 127.304688 190.40625 127.304688 189.574219 C 127.304688 188.742188 126.472656 187.910156 125.640625 187.910156 Z M 125.640625 187.910156 " fill-opacity="1" fill-rule="nonzero"/><path fill="#6366f1" d="M 73.195312 202.0625 L 79.855469 202.0625 C 80.6875 202.0625 81.519531 201.230469 81.519531 200.398438 C 81.519531 199.566406 80.6875 198.730469 79.855469 198.730469 L 73.195312 198.730469 C 72.363281 198.730469 71.53125 199.566406 71.53125 200.398438 C 71.53125 201.230469 72.363281 202.0625 73.195312 202.0625 Z M 73.195312 202.0625 " fill-opacity="1" fill-rule="nonzero"/><path fill="#6366f1" d="M 125.640625 198.730469 L 92.34375 198.730469 C 91.507812 198.730469 90.675781 199.566406 90.675781 200.398438 C 90.675781 201.230469 91.507812 202.0625 92.34375 202.0625 L 125.640625 202.0625 C 126.472656 202.0625 127.304688 201.230469 127.304688 200.398438 C 127.304688 199.566406 126.472656 198.730469 125.640625 198.730469 Z M 125.640625 198.730469 " fill-opacity="1" fill-rule="nonzero"/><path fill="#6366f1" d="M 73.195312 212.882812 L 106.492188 212.882812 C 107.324219 212.882812 108.160156 212.050781 108.160156 211.21875 C 108.160156 210.386719 107.324219 209.554688 106.492188 209.554688 L 73.195312 209.554688 C 72.363281 209.554688 71.53125 210.386719 71.53125 211.21875 C 71.53125 212.050781 72.363281 212.882812 73.195312 212.882812 Z M 73.195312 212.882812 " fill-opacity="1" fill-rule="nonzero"/><path fill="#6366f1" d="M 125.640625 209.554688 L 118.980469 209.554688 C 118.148438 209.554688 117.316406 210.386719 117.316406 211.21875 C 117.316406 212.050781 118.148438 212.882812 118.980469 212.882812 L 125.640625 212.882812 C 126.472656 212.882812 127.304688 212.050781 127.304688 211.21875 C 127.304688 210.386719 126.472656 209.554688 125.640625 209.554688 Z M 125.640625 209.554688 " fill-opacity="1" fill-rule="nonzero"/><path fill="#6366f1" d="M 115.648438 127.976562 L 108.992188 127.976562 C 108.160156 127.976562 107.324219 128.808594 107.324219 129.640625 C 107.324219 130.472656 108.160156 131.304688 108.992188 131.304688 L 115.648438 131.304688 C 116.484375 131.304688 117.316406 130.472656 117.316406 129.640625 C 117.316406 128.808594 116.484375 127.976562 115.648438 127.976562 Z M 115.648438 127.976562 " fill-opacity="1" fill-rule="nonzero"/><path fill="#6366f1" d="M 97.335938 127.976562 L 83.183594 127.976562 C 82.351562 127.976562 81.519531 128.808594 81.519531 129.640625 C 81.519531 130.472656 82.351562 131.304688 83.183594 131.304688 L 98.167969 131.304688 C 99 131.304688 99.835938 130.472656 99.835938 129.640625 C 99 128.808594 98.167969 127.976562 97.335938 127.976562 Z M 97.335938 127.976562 " fill-opacity="1" fill-rule="nonzero"/><g fill="#5271ff" fill-opacity="1"><g transform="translate(165.015199, 197.468985)"><g><path d="M 8.109375 0 L 0.90625 0 L 0.90625 -20.25 L 8.109375 -20.25 Z M 9.8125 0 L 9.8125 -20.25 C 12.363281 -20.019531 14.304688 -19.039062 15.640625 -17.3125 C 16.984375 -15.59375 17.65625 -13.191406 17.65625 -10.109375 C 17.65625 -7.035156 16.984375 -4.632812 15.640625 -2.90625 C 14.304688 -1.175781 12.363281 -0.207031 9.8125 0 Z M 9.8125 0 "/></g></g></g><g fill="#5271ff" fill-opacity="1"><g transform="translate(188.114448, 197.468985)"><g><path d="M 6.671875 0.25 C 4.679688 0.0820312 3.132812 -0.648438 2.03125 -1.953125 C 0.9375 -3.253906 0.390625 -4.992188 0.390625 -7.171875 C 0.390625 -9.367188 0.9375 -11.117188 2.03125 -12.421875 C 3.125 -13.722656 4.671875 -14.46875 6.671875 -14.65625 Z M 8.234375 0.25 L 8.234375 -14.65625 C 10.253906 -14.46875 11.8125 -13.71875 12.90625 -12.40625 C 14 -11.101562 14.546875 -9.359375 14.546875 -7.171875 C 14.546875 -5.003906 13.992188 -3.269531 12.890625 -1.96875 C 11.785156 -0.675781 10.234375 0.0625 8.234375 0.25 Z M 8.234375 0.25 "/></g></g></g><g fill="#5271ff" fill-opacity="1"><g transform="translate(207.969723, 197.468985)"><g><path d="M 13.375 -8.546875 L 7.625 -14.40625 L 13.375 -14.40625 Z M 7.03125 -1.46875 C 7.132812 -1.445312 7.242188 -1.429688 7.359375 -1.421875 C 7.472656 -1.421875 7.632812 -1.421875 7.84375 -1.421875 C 8.976562 -1.421875 9.992188 -1.707031 10.890625 -2.28125 C 11.785156 -2.851562 12.613281 -3.742188 13.375 -4.953125 L 13.375 -2.25 C 12.5 -1.351562 11.59375 -0.710938 10.65625 -0.328125 C 9.726562 0.0546875 8.625 0.25 7.34375 0.25 C 5.1875 0.25 3.488281 -0.398438 2.25 -1.703125 C 1.007812 -3.003906 0.390625 -4.789062 0.390625 -7.0625 C 0.390625 -9.300781 0.972656 -11.066406 2.140625 -12.359375 C 3.316406 -13.648438 4.945312 -14.332031 7.03125 -14.40625 Z M 7.03125 -1.46875 "/></g></g></g><g fill="#5271ff" fill-opacity="1"><g transform="translate(226.784739, 197.468985)"><g><path d="M 10.109375 0.25 L 10.109375 -10.0625 L 17.375 -10.0625 C 17.375 -9.925781 17.382812 -9.726562 17.40625 -9.46875 C 17.425781 -9 17.4375 -8.691406 17.4375 -8.546875 C 17.4375 -5.867188 16.804688 -3.773438 15.546875 -2.265625 C 14.296875 -0.753906 12.484375 0.0820312 10.109375 0.25 Z M 9.578125 -20.25 L 16.59375 -20.25 L 16.59375 -12.4375 Z M 8.375 0.25 C 5.800781 0.0390625 3.847656 -0.925781 2.515625 -2.65625 C 1.191406 -4.382812 0.53125 -6.828125 0.53125 -9.984375 C 0.53125 -13.140625 1.191406 -15.582031 2.515625 -17.3125 C 3.847656 -19.039062 5.800781 -20.019531 8.375 -20.25 Z M 8.375 0.25 "/></g></g></g><g fill="#5271ff" fill-opacity="1"><g transform="translate(249.774486, 197.468985)"><g><path d="M 13.109375 -7.546875 L 8 -7.546875 L 8 -14.65625 C 9.769531 -14.550781 11.054688 -13.941406 11.859375 -12.828125 C 12.671875 -11.722656 13.085938 -9.960938 13.109375 -7.546875 Z M 6.5625 -1.484375 L 6.625 -1.484375 C 7.0625 -1.410156 7.40625 -1.375 7.65625 -1.375 C 8.71875 -1.375 9.6875 -1.675781 10.5625 -2.28125 C 11.4375 -2.882812 12.238281 -3.804688 12.96875 -5.046875 L 12.96875 -2.296875 C 12.15625 -1.410156 11.304688 -0.765625 10.421875 -0.359375 C 9.546875 0.046875 8.550781 0.25 7.4375 0.25 C 5.1875 0.25 3.445312 -0.394531 2.21875 -1.6875 C 1 -2.976562 0.390625 -4.804688 0.390625 -7.171875 C 0.390625 -9.390625 0.929688 -11.15625 2.015625 -12.46875 C 3.109375 -13.789062 4.625 -14.519531 6.5625 -14.65625 Z M 6.5625 -1.484375 "/></g></g></g><g fill="#5271ff" fill-opacity="1"><g transform="translate(268.329437, 197.468985)"><g><path d="M 6.359375 0 L 0.78125 0 L 0.78125 -14.40625 L 6.359375 -14.40625 Z M 7.90625 -14.40625 L 8.578125 -14.40625 C 10.523438 -14.40625 11.828125 -14.054688 12.484375 -13.359375 C 13.148438 -12.660156 13.484375 -11.253906 13.484375 -9.140625 L 13.484375 0 L 7.90625 0 Z M 7.90625 -14.40625 "/></g></g></g><g fill="#5271ff" fill-opacity="1"><g transform="translate(287.527701, 197.468985)"><g><path d="M 6.609375 -17.9375 C 6.609375 -17.238281 6.3125 -16.628906 5.71875 -16.109375 C 5.125 -15.585938 4.40625 -15.328125 3.5625 -15.328125 C 2.71875 -15.328125 2 -15.582031 1.40625 -16.09375 C 0.820312 -16.613281 0.53125 -17.226562 0.53125 -17.9375 C 0.53125 -18.632812 0.820312 -19.234375 1.40625 -19.734375 C 2 -20.234375 2.71875 -20.484375 3.5625 -20.484375 C 4.394531 -20.484375 5.109375 -20.226562 5.703125 -19.71875 C 6.304688 -19.21875 6.609375 -18.625 6.609375 -17.9375 Z M 6.359375 0 L 0.78125 0 L 0.78125 -14.40625 L 6.359375 -14.40625 Z M 6.359375 0 "/></g></g></g><g fill="#5271ff" fill-opacity="1"><g transform="translate(299.608399, 197.468985)"><g><path d="M 6.359375 0.25 L 6.25 0.25 C 4.21875 0.25 2.796875 -0.144531 1.984375 -0.9375 C 1.179688 -1.738281 0.78125 -3.179688 0.78125 -5.265625 L 0.78125 -14.40625 L 6.359375 -14.40625 Z M 7.90625 0.25 L 7.90625 -14.40625 L 13.484375 -14.40625 L 13.484375 -5.265625 C 13.484375 -3.179688 13.078125 -1.738281 12.265625 -0.9375 C 11.460938 -0.144531 10.046875 0.25 8.015625 0.25 Z M 7.90625 0.25 "/></g></g></g><g fill="#5271ff" fill-opacity="1"><g transform="translate(318.806663, 197.468985)"><g><path d="M 4.6875 -14.40625 C 4.539062 -14.3125 4.425781 -14.195312 4.34375 -14.0625 C 4.269531 -13.925781 4.234375 -13.796875 4.234375 -13.671875 C 4.234375 -13.347656 4.421875 -13 4.796875 -12.625 C 4.867188 -12.550781 4.921875 -12.488281 4.953125 -12.4375 L 10.671875 -6.453125 C 11.171875 -5.941406 11.546875 -5.414062 11.796875 -4.875 C 12.046875 -4.34375 12.171875 -3.796875 12.171875 -3.234375 C 12.171875 -2.191406 11.804688 -1.382812 11.078125 -0.8125 C 10.347656 -0.25 9.320312 0.03125 8 0.03125 C 7.914062 0.03125 7.800781 0.0234375 7.65625 0.015625 C 7.519531 0.00390625 7.414062 0 7.34375 0 C 7.488281 -0.09375 7.597656 -0.203125 7.671875 -0.328125 C 7.742188 -0.460938 7.78125 -0.601562 7.78125 -0.75 C 7.78125 -1.070312 7.597656 -1.429688 7.234375 -1.828125 C 7.160156 -1.890625 7.113281 -1.929688 7.09375 -1.953125 L 1.578125 -7.96875 C 1.234375 -8.332031 0.992188 -8.695312 0.859375 -9.0625 C 0.734375 -9.4375 0.671875 -9.9375 0.671875 -10.5625 C 0.671875 -11.65625 1.023438 -12.566406 1.734375 -13.296875 C 2.441406 -14.035156 3.316406 -14.40625 4.359375 -14.40625 Z M 11.015625 -8.265625 L 5.234375 -14.40625 L 11.015625 -14.40625 Z M 6.78125 0 L 0.90625 0 L 0.90625 -6.34375 Z M 6.78125 0 "/></g></g></g></svg>